# File created by Blade
# Date/Time:  Tue Jan 27 18:05:41 2015
# Frame Rate: 120.000 fps
#------------------------------------------------------
:FULLY-SPECIFIED
:DEGREES
4383
root -0.769608 31.962629 -6.611109 4.378916 -15.092791 1.092436
Spine -4.084559 -18.919137 -0.491371
Head 22.319233 31.199313 13.429725
LeftShoulder -13.810132 18.351217 9.217615
LeftArm 22.547979 37.578891 -69.979624
LeftForeArm -0.362403 -0.000000 19.080025
LeftHand -11.733924 -0.000000 -4.336063
LeftHandThumb1 -26.253704 0.000000 33.147579
RightShoulder -13.463633 10.864665 -36.486539
RightArm 14.895817 73.737963 54.176748
RightForeArm 32.529585 -0.000000 100.172208
RightHand -6.561629 -0.000000 0.581979
RightHandThumb1 -24.326973 -0.000000 -32.862282
LeftUpLeg 2.396997 12.842834 -1.973929
LeftLeg -0.170762 -0.000000 0.000000
LeftFoot -22.596215 24.031449 -26.762516
LeftToeBase 8.771089 -0.000000 -0.000000
RightUpLeg -6.187869 6.859999 -4.222788
RightLeg 6.623863 -0.000000 -0.000000
RightFoot -13.984060 -4.290327 7.490434
RightToeBase 3.046179 -0.000000 -0.000000
4384
root -0.763431 31.962374 -6.610463 4.401166 -14.967177 1.113327
Spine -4.067475 -18.939052 -0.467212
Head 22.222231 31.275569 13.338155
LeftShoulder -13.854039 18.352303 9.209998
LeftArm 22.604439 37.599914 -69.969359
LeftForeArm -0.270628 -0.000000 19.130539
LeftHand -11.702511 -0.000000 -4.355115
LeftHandThumb1 -26.253704 0.000000 33.147579
RightShoulder -13.535206 10.816338 -36.424077
RightArm 14.227207 73.932804 53.676207
RightForeArm 32.477440 -0.000000 99.700283
RightHand -6.463197 -0.000000 0.599634
RightHandThumb1 -24.326973 -0.000000 -32.862282
LeftUpLeg 2.355035 12.791119 -1.999352
LeftLeg -0.167289 -0.000000 0.000000
LeftFoot -22.537334 23.979266 -26.683145
LeftToeBase 8.755305 -0.000000 -0.000000
RightUpLeg -6.177676 6.791343 -4.250528
RightLeg 6.589077 -0.000000 -0.000000
RightFoot -13.996279 -4.343566 7.505225
RightToeBase 3.029917 -0.000000 -0.000000
4385
root -0.757249 31.962397 -6.610928 4.431342 -14.837899 1.128225
Spine -4.067288 -18.976309 -0.429161
Head 22.132254 31.328875 13.226134
LeftShoulder -13.883845 18.340008 9.207618
LeftArm 22.619520 37.626202 -69.989606
LeftForeArm -0.257041 0.000000 19.180356
LeftHand -11.675112 -0.000000 -4.284581
LeftHandThumb1 -26.253704 0.000000 33.147579
RightShoulder -13.573578 10.804486 -36.392241
RightArm 13.443315 74.113875 53.120121
RightForeArm 32.490949 -0.000000 99.231947
RightHand -6.530281 -0.000000 0.565191
RightHandThumb1 -24.326973 -0.000000 -32.862282
LeftUpLeg 2.297285 12.731965 -2.027518
LeftLeg -0.148967 -0.000000 0.000000
LeftFoot -22.551271 23.911308 -26.737876
LeftToeBase 8.781943 -0.000000 -0.000000
RightUpLeg -6.174880 6.736272 -4.272779
RightLeg 6.554300 -0.000000 -0.000000
RightFoot -14.008427 -4.401460 7.536768
RightToeBase 3.038287 -0.000000 -0.000000
4386
root -0.751575 31.962357 -6.611030 4.450297 -14.711999 1.146752
Spine -4.048398 -18.986540 -0.408860
Head 22.070446 31.436437 13.187825
LeftShoulder -13.887382 18.309281 9.222676
LeftArm 22.602403 37.623450 -70.045657
LeftForeArm -0.240088 -0.000000 19.238095
LeftHand -11.685342 0.000000 -4.268301
LeftHandThumb1 -26.253704 0.000000 33.147579
RightShoulder -13.641632 10.580696 -36.300899
RightArm 13.244365 74.351502 53.116771
RightForeArm 32.388564 -0.000000 98.756814
RightHand -6.448274 -0.000000 0.781534
RightHandThumb1 -24.326973 -0.000000 -32.862282
LeftUpLeg 2.260705 12.649595 -2.052620
LeftLeg -0.152762 -0.000000 0.000000
LeftFoot -22.533805 23.882576 -26.732520
LeftToeBase 8.814035 -0.000000 -0.000000
RightUpLeg -6.170721 6.651492 -4.294923
RightLeg 6.538310 -0.000000 -0.000000
RightFoot -14.025525 -4.434625 7.555965
RightToeBase 3.039533 -0.000000 -0.000000
4387
root -0.746621 31.962429 -6.610795 4.467744 -14.594783 1.160044
Spine -4.033464 -18.996770 -0.380210
Head 22.033991 31.529991 13.137511
LeftShoulder -13.902418 18.322430 9.223003
LeftArm 22.668808 37.655839 -70.040572
LeftForeArm -0.316124 -0.000000 19.261225
LeftHand -11.671721 -0.000000 -4.236553
LeftHandThumb1 -26.253704 0.000000 33.147579
RightShoulder -13.677925 10.477713 -36.216934
RightArm 12.506192 74.518283 52.552765
RightForeArm 32.434989 -0.000000 98.254833
RightHand -6.445438 0.000000 0.969506
RightHandThumb1 -24.326973 -0.000000 -32.862282
LeftUpLeg 2.228722 12.576795 -2.070600
LeftLeg -0.154369 -0.000000 0.000000
LeftFoot -22.476897 23.869782 -26.675028
LeftToeBase 8.738172 -0.000000 -0.000000
RightUpLeg -6.162654 6.619144 -4.313726
RightLeg 6.520359 -0.000000 -0.000000
RightFoot -14.041903 -4.518158 7.580696
RightToeBase 3.044632 -0.000000 -0.000000
4388
root -0.741219 31.962356 -6.609322 4.481151 -14.488160 1.180834
Spine -4.020715 -19.028758 -0.350347
Head 21.984770 31.631540 13.066646
LeftShoulder -13.935934 18.325847 9.211581
LeftArm 22.699753 37.680704 -70.055255
LeftForeArm -0.364560 -0.000000 19.286298
LeftHand -11.646960 -0.000000 -4.193387
LeftHandThumb1 -26.253704 0.000000 33.147579
RightShoulder -13.717084 10.397547 -36.159463
RightArm 11.801349 74.603806 52.047245
RightForeArm 32.564382 -0.000000 97.737105
RightHand -6.568481 -0.000000 0.616391
RightHandThumb1 -24.326973 -0.000000 -32.862282
LeftUpLeg 2.189417 12.542316 -2.087210
LeftLeg -0.124227 -0.000000 0.000000
LeftFoot -22.406097 23.790349 -26.571482
LeftToeBase 8.719750 -0.000000 -0.000000
RightUpLeg -6.159594 6.577351 -4.341613
RightLeg 6.517431 -0.000000 -0.000000
RightFoot -14.071156 -4.559065 7.628518
RightToeBase 3.080489 -0.000000 -0.000000
4389
root -0.736389 31.962032 -6.608512 4.494545 -14.382812 1.191733
Spine -4.002613 -19.046449 -0.323882
Head 21.946350 31.695365 13.013311
LeftShoulder -13.953579 18.343431 9.209902
LeftArm 22.745932 37.700111 -70.051052
LeftForeArm -0.349076 -0.000000 19.345878
LeftHand -11.746170 -0.000000 -4.198707
LeftHandThumb1 -26.253704 0.000000 33.147579
RightShoulder -13.773628 10.260411 -36.079565
RightArm 11.362953 74.733197 51.806194
RightForeArm 32.648254 -0.000000 97.189541
RightHand -6.736528 0.000000 0.682802
RightHandThumb1 -24.326973 -0.000000 -32.862282
LeftUpLeg 2.159842 12.469391 -2.101741
LeftLeg -0.118129 -0.000000 0.000000
LeftFoot -22.397866 23.759028 -26.573687
LeftToeBase 8.710485 -0.000000 -0.000000
RightUpLeg -6.159066 6.547118 -4.355814
RightLeg 6.523086 -0.000000 -0.000000
RightFoot -14.101424 -4.627576 7.651562
RightToeBase 3.108869 -0.000000 -0.000000
4390
root -0.732458 31.962055 -6.607899 4.501318 -14.288031 1.199089
Spine -3.969701 -19.074409 -0.290201
Head 21.914262 31.781495 12.956791
LeftShoulder -13.994586 18.345238 9.196066
LeftArm 22.763187 37.700938 -70.068380
LeftForeArm -0.310495 -0.000000 19.404912
LeftHand -11.817418 -0.000000 -4.198411
LeftHandThumb1 -26.253704 0.000000 33.147579
RightShoulder -13.818607 10.125637 -35.971013
RightArm 10.867343 74.758021 51.454457
RightForeArm 32.839307 -0.000000 96.689790
RightHand -6.842056 -0.000000 0.378569
RightHandThumb1 -24.326973 -0.000000 -32.862282
LeftUpLeg 2.148171 12.403674 -2.116399
LeftLeg -0.128695 -0.000000 0.000000
LeftFoot -22.413331 23.737563 -26.623171
LeftToeBase 8.743671 -0.000000 -0.000000
RightUpLeg -6.163039 6.512690 -4.368198
RightLeg 6.550028 -0.000000 -0.000000
RightFoot -14.127599 -4.663608 7.696671
RightToeBase 3.081304 -0.000000 -0.000000
4391
root -0.727393 31.962058 -6.606345 4.503450 -14.197781 1.215152
Spine -3.933611 -19.094014 -0.260059
Head 21.879226 31.880181 12.894434
LeftShoulder -14.044169 18.357750 9.165248
LeftArm 22.787128 37.692868 -70.072846
LeftForeArm -0.238020 0.000000 19.481497
LeftHand -11.843596 -0.000000 -4.203353
LeftHandThumb1 -26.253704 0.000000 33.147579
RightShoulder -13.894674 9.950376 -35.882416
RightArm 10.596044 74.829871 51.367155
RightForeArm 32.815116 -0.000000 96.128102
RightHand -6.811413 -0.000000 0.610176
RightHandThumb1 -24.326973 -0.000000 -32.862282
LeftUpLeg 2.136419 12.343698 -2.130539
LeftLeg -0.130055 -0.000000 0.000000
LeftFoot -22.338966 23.727090 -26.509163
LeftToeBase 8.706763 -0.000000 -0.000000
RightUpLeg -6.165003 6.500604 -4.386619
RightLeg 6.580954 -0.000000 -0.000000
RightFoot -14.171565 -4.756554 7.717070
RightToeBase 3.086886 -0.000000 -0.000000
4392
root -0.722013 31.961394 -6.605316 4.505054 -14.111846 1.229749
Spine -3.912616 -19.118064 -0.232700
Head 21.910166 32.004223 12.861683
LeftShoulder -14.068732 18.389145 9.159891
LeftArm 22.802382 37.682293 -70.111106
LeftForeArm -0.236609 0.000000 19.541733
LeftHand -11.837123 -0.000000 -4.071143
LeftHandThumb1 -26.253704 0.000000 33.147579
RightShoulder -13.912161 9.928514 -35.833093
RightArm 9.616845 74.773882 50.594045
RightForeArm 32.793938 -0.000000 95.605152
RightHand -6.945027 -0.000000 0.191869
RightHandThumb1 -24.326973 -0.000000 -32.862282
LeftUpLeg 2.120341 12.322141 -2.153870
LeftLeg -0.124030 -0.000000 0.000000
LeftFoot -22.336436 23.683776 -26.520245
LeftToeBase 8.717606 -0.000000 -0.000000
RightUpLeg -6.174415 6.485842 -4.406324
RightLeg 6.626197 -0.000000 -0.000000
RightFoot -14.216825 -4.814900 7.731638
RightToeBase 3.079589 -0.000000 -0.000000
4393
root -0.717240 31.960882 -6.604191 4.504832 -14.038887 1.246161
Spine -3.885099 -19.130346 -0.206129
Head 21.929795 32.120757 12.846753
LeftShoulder -14.101477 18.423115 9.148492
LeftArm 22.838408 37.690375 -70.127387
LeftForeArm -0.235853 0.000000 19.574283
LeftHand -11.697291 -0.000000 -4.015841
LeftHandThumb1 -26.253704 0.000000 33.147579
RightShoulder -13.945980 9.854214 -35.753170
RightArm 8.938019 74.754618 50.107579
RightForeArm 32.858564 -0.000000 95.060750
RightHand -6.961966 -0.000000 0.231589
RightHandThumb1 -24.326973 -0.000000 -32.862282
LeftUpLeg 2.112522 12.289039 -2.173437
LeftLeg -0.128345 -0.000000 0.000000
LeftFoot -22.325732 23.652624 -26.520858
LeftToeBase 8.747065 -0.000000 -0.000000
RightUpLeg -6.187054 6.467839 -4.426904
RightLeg 6.675211 -0.000000 -0.000000
RightFoot -14.262508 -4.856722 7.760003
RightToeBase 3.072579 -0.000000 -0.000000
